<?xml version="1.0" standalone="no"?>
<!DOCTYPE svg PUBLIC "-//W3C//DTD SVG 20010904//EN"
 "http://www.w3.org/TR/2001/REC-SVG-20010904/DTD/svg10.dtd">
<svg version="1.0" xmlns="http://www.w3.org/2000/svg"
 width="65px" height="64px" viewBox="0 0 65 64"
 preserveAspectRatio="xMidYMid meet">
<metadata>
Created by potrace 1.15, written by Peter Selinger 2001-2017
</metadata>
<g transform="translate(0.000000,357.000000) scale(0.100000,-0.100000)"
fill="#000000" stroke="none">
<path d="M1201 2630 c-157 -33 -282 -100 -391 -210 -97 -98 -139 -163 -184
-287 -29 -83 -31 -96 -31 -233 0 -133 3 -152 28 -225 42 -118 99 -209 191
-300 90 -89 186 -146 316 -187 107 -33 292 -33 400 1 253 78 434 259 511 511
18 57 23 99 24 178 0 101 -1 104 -28 128 -33 28 -83 32 -127 9 -33 -17 -36
-27 -45 -144 -18 -237 -165 -420 -390 -487 -75 -22 -220 -23 -291 -2 -175 54
-299 169 -363 338 -21 55 -25 82 -25 180 0 132 20 201 88 303 107 161 322 258
507 227 102 -16 132 -13 159 14 30 33 32 96 5 126 -42 47 -93 63 -205 66 -58
2 -125 -1 -149 -6z"/>
<path d="M1850 2524 c-26 -51 -64 -85 -124 -116 -22 -11 -51 -30 -64 -41 -27
-25 -56 -119 -48 -153 6 -24 8 -24 45 23 78 98 169 162 234 163 23 0 27 4 27
28 0 33 -27 129 -38 136 -4 2 -18 -16 -32 -40z"/>
<path d="M1278 2094 c-71 -38 -77 -135 -11 -190 l24 -21 -14 -81 c-12 -70 -12
-82 0 -87 25 -9 121 -6 128 5 3 5 1 46 -6 90 l-12 80 29 31 c23 24 29 39 29
75 0 40 -5 50 -37 80 -42 38 -83 44 -130 18z"/>
</g>
</svg>
